<svg width="29" height="29" viewBox="0 0 29 29" fill="none" xmlns="http://www.w3.org/2000/svg">
<path d="M22.5867 22H8.38667C7.06667 22 5.8 21.44 4.90667 20.4667C4.46355 19.9841 4.12473 19.4154 3.91138 18.7959C3.69802 18.1765 3.61471 17.5197 3.66667 16.8667L4.77333 3.58667C4.81333 3.17333 4.66667 2.77333 4.38667 2.46667C4.10667 2.16 3.72 2 3.30667 2H1C0.453333 2 0 1.54667 0 1C0 0.453333 0.453333 0 1 0H3.32C4.29333 0 5.21333 0.413333 5.86667 1.12C6.22667 1.52 6.49333 1.98667 6.64 2.50667H23.2933C24.64 2.50667 25.88 3.04 26.7867 4C27.68 4.97333 28.1333 6.24 28.0267 7.58667L27.3067 17.5867C27.16 20.0267 25.0267 22 22.5867 22ZM6.70667 4.49333L5.66667 17.0267C5.6 17.8 5.85333 18.5333 6.37333 19.1067C6.89333 19.68 7.61333 19.9867 8.38667 19.9867H22.5867C23.9733 19.9867 25.2267 18.8133 25.3333 17.4267L26.0533 7.42667C26.085 7.04862 26.0372 6.66814 25.9131 6.30966C25.7889 5.95119 25.5912 5.62264 25.3325 5.34514C25.0738 5.06763 24.76 4.84731 24.4111 4.69832C24.0622 4.54932 23.686 4.47496 23.3067 4.48H6.70667V4.49333ZM20 28.6667C18.5333 28.6667 17.3333 27.4667 17.3333 26C17.3333 24.5333 18.5333 23.3333 20 23.3333C21.4667 23.3333 22.6667 24.5333 22.6667 26C22.6667 27.4667 21.4667 28.6667 20 28.6667ZM20 25.3333C19.6267 25.3333 19.3333 25.6267 19.3333 26C19.3333 26.3733 19.6267 26.6667 20 26.6667C20.3733 26.6667 20.6667 26.3733 20.6667 26C20.6667 25.6267 20.3733 25.3333 20 25.3333ZM9.33333 28.6667C7.86667 28.6667 6.66667 27.4667 6.66667 26C6.66667 24.5333 7.86667 23.3333 9.33333 23.3333C10.8 23.3333 12 24.5333 12 26C12 27.4667 10.8 28.6667 9.33333 28.6667ZM9.33333 25.3333C8.96 25.3333 8.66667 25.6267 8.66667 26C8.66667 26.3733 8.96 26.6667 9.33333 26.6667C9.70667 26.6667 10 26.3733 10 26C10 25.6267 9.70667 25.3333 9.33333 25.3333Z" fill="white"/>
</svg>
